<svg xmlns="http://www.w3.org/2000/svg" width="100.72" height="100.718" viewBox="0 0 100.72 100.718">
  <g id="Group_426" data-name="Group 426" transform="translate(-1943.606 3978.144)">
    <path id="Path_632" data-name="Path 632" d="M2006.781-3856.283a1.573,1.573,0,0,0-2.14.61,1.573,1.573,0,0,0,.605,2.137,5.154,5.154,0,0,1,2.241,3.066c.358,1.633-.244,3.534-1.787,5.649a1.574,1.574,0,0,0,.33,2.2,1.573,1.573,0,0,0,2.2-.331l.012-.016c2.1-2.875,2.877-5.626,2.319-8.177A8.345,8.345,0,0,0,2006.781-3856.283Zm34.661,0a8.344,8.344,0,0,0-3.781,5.14c-.558,2.551.221,5.3,2.319,8.177a1.573,1.573,0,0,0,2.2.348,1.573,1.573,0,0,0,.348-2.2l0-.005c-1.533-2.1-2.136-3.991-1.793-5.617a5.187,5.187,0,0,1,2.256-3.1,1.574,1.574,0,0,0,.593-2.145A1.573,1.573,0,0,0,2041.442-3856.283Z" transform="translate(-30.146 -60.286)" fill="#97f1ff"/>
    <path id="Path_633" data-name="Path 633" d="M2026.49-3963.953a1.563,1.563,0,0,0-.161-.152l-1.689-1.384a1.635,1.635,0,0,0-.215-.148l-7.408-4.244a27.392,27.392,0,0,0-6.474-2.687,8.979,8.979,0,0,0-3.07-4.09,7.066,7.066,0,0,0-3.671-1.486H1984.13a6.992,6.992,0,0,0-3.67,1.484,8.99,8.99,0,0,0-3.07,4.091,27.427,27.427,0,0,0-6.479,2.691l-7.4,4.242a1.635,1.635,0,0,0-.215.148l-1.689,1.384a1.562,1.562,0,0,0-.161.152c-.559.607-13.734,15.613-17.825,79.863a4.726,4.726,0,0,0,3.637,4.917l7.027,1.658a3.153,3.153,0,0,0,3.792-2.346l.008-.034,8.563-37.9c-.078,4.907-.852,24.543-1,29.3-.052,1.631.344,4.007,1.635,5.34a3.152,3.152,0,0,0,2.3,1.005h48a4.74,4.74,0,0,0,3.441-1.431,4.548,4.548,0,0,0,1.279-3.34c-.141-4.42-.938-25.409-1.014-30.914l8.572,37.935a3.154,3.154,0,0,0,3.071,2.472,3.185,3.185,0,0,0,.73-.085l7.027-1.657a4.727,4.727,0,0,0,3.638-4.918C2040.224-3948.335,2027.049-3963.345,2026.49-3963.953Zm4.231,73.632,9.79-2.61c.087,1.051.173,2.113.254,3.194l-9.311,2.66Zm-25.1-83.792a6.345,6.345,0,0,1,2.412,4.275,7.634,7.634,0,0,1-1.25,5.623c-1.848,2.474-5.3,4.421-8.674,6.039,2.6-4.331,6.205-10.927,7.445-15.975Zm-11.658,16.665c-2.374-3.78-7.266-12.008-8.56-17.549h17.121C2001.231-3969.456,1996.339-3961.227,1993.965-3957.447Zm-14.069-12.389a6.361,6.361,0,0,1,2.374-4.248l.106-.062c1.24,5.047,4.849,11.641,7.444,15.971-3.375-1.618-6.826-3.565-8.674-6.038A7.639,7.639,0,0,1,1979.9-3969.836Zm-32.73,80.1c.082-1.081.167-2.143.255-3.194l9.784,2.608-.733,3.244Zm.81,7.5a1.587,1.587,0,0,1-1.218-1.654q.085-1.336.176-2.64l8.844,2.527-.774,3.425Zm20.809-6.156v-.05h17.31a1.574,1.574,0,0,0,1.574-1.573,1.574,1.574,0,0,0-1.574-1.574h-17.2c.123-3.522.252-6.826.375-9.94.458-11.618.819-20.794.3-29.5a1.574,1.574,0,0,0-1.664-1.478,1.574,1.574,0,0,0-1.442,1.224l-8.565,37.886-10.2-2.72c4.591-50.622,15.161-64.6,16.006-65.644l1.48-1.212,7.291-4.177a24.546,24.546,0,0,1,4.2-1.906,10.65,10.65,0,0,0,1.954,6.723c2.9,3.885,8.471,6.4,12.946,8.429l.821.372v68.238l-22.791,0A4.606,4.606,0,0,1,1968.785-3888.392ZM2019.8-3932.5a1.573,1.573,0,0,0-1.442,1.475c-.53,8.913-.148,18.968.337,31.7.094,2.483.191,5.067.286,7.736h-17.15a1.574,1.574,0,0,0-1.574,1.574,1.574,1.574,0,0,0,1.574,1.573h17.258c.018.541.036,1.075.054,1.624a1.406,1.406,0,0,1-.394,1.05,1.621,1.621,0,0,1-1.181.474l-22.033,0v-11.019h.787a1.574,1.574,0,0,0,1.573-1.574,1.574,1.574,0,0,0-1.573-1.573h-.787v-4.721h.787a1.573,1.573,0,0,0,1.573-1.573,1.573,1.573,0,0,0-1.573-1.574h-.787v-4.721h.787a1.574,1.574,0,0,0,1.573-1.574,1.573,1.573,0,0,0-1.573-1.573h-.787v-4.721h.787a1.573,1.573,0,0,0,1.573-1.573,1.574,1.574,0,0,0-1.573-1.574h-.787v-4.721h.787a1.574,1.574,0,0,0,1.573-1.574,1.573,1.573,0,0,0-1.573-1.573h-.787v-4.721h.787a1.574,1.574,0,0,0,1.573-1.574,1.573,1.573,0,0,0-1.573-1.573h-.787v-4.722h.787a1.573,1.573,0,0,0,1.573-1.573,1.574,1.574,0,0,0-1.573-1.574h-.787v-6.859l.822-.372c4.474-2.024,10.043-4.544,12.945-8.428a10.658,10.658,0,0,0,1.953-6.723,24.611,24.611,0,0,1,4.192,1.9l7.295,4.18,1.485,1.216c.878,1.057,11.405,14.75,16,65.639l-10.208,2.722-8.56-37.887a1.556,1.556,0,0,0-1.663-1.221Zm20.151,50.269-7.034,1.646-.772-3.416,8.849-2.528q.09,1.308.176,2.643a1.587,1.587,0,0,1-1.219,1.655Z" fill="#fff"/>
  </g>
</svg>
