<svg id="Layer_1" data-name="Layer 1" xmlns="http://www.w3.org/2000/svg" viewBox="0 0 184.12 147.34"><defs><style>.cls-1{fill:#8f77ad;}</style></defs><g id="Group_175" data-name="Group 175"><path class="cls-1" d="M148.71,142.49H116.8a3.5,3.5,0,0,1,0-7h28.41V68.39a3.5,3.5,0,0,1,3.5-3.5h16.78L116.78,16.18l-49.13,48a3.5,3.5,0,1,1-4.89-5l51.6-50.43a3.49,3.49,0,0,1,4.92,0l57.13,57.13a3.5,3.5,0,0,1-2.47,6H152.21V139A3.5,3.5,0,0,1,148.71,142.49Z"/><path class="cls-1" d="M10.62,142.49a3.5,3.5,0,0,1-2.45-6L38.9,106.41a3.49,3.49,0,0,1,2.45-1h35L106.84,75.9a3.5,3.5,0,1,1,4.87,5l-31.46,30.5a3.49,3.49,0,0,1-2.44,1h-35l-29.7,29.08A3.5,3.5,0,0,1,10.62,142.49Z"/></g></svg>