<svg id="Layer_1" data-name="Layer 1" xmlns="http://www.w3.org/2000/svg" viewBox="0 0 112.33 85.34"><defs><style>.cls-1{fill:#fff;}.cls-2{fill:#8ff2ff;}</style></defs><g id="Group_205" data-name="Group 205"><path id="Path_371" data-name="Path 371" class="cls-1" d="M55.83,8.63h.07a1.72,1.72,0,0,0,1.64-1.78h0l-.16-4a1.76,1.76,0,0,0-1.23-1.66A1.72,1.72,0,0,0,54,2.36a1.7,1.7,0,0,0-.07.55L54.11,7A1.72,1.72,0,0,0,55.83,8.63ZM44.16,11.51a1.74,1.74,0,0,0,2.43-.14A1.71,1.71,0,0,0,46.45,9h0l-2.68-2.4a1.71,1.71,0,0,0-2.42.15h0a1.72,1.72,0,0,0,.13,2.42ZM68,11,70.5,8.43a1.71,1.71,0,0,0,0-2.43h0a1.72,1.72,0,0,0-2.43,0h0L65.57,8.54a1.72,1.72,0,0,0,0,2.43h0A1.73,1.73,0,0,0,68,11ZM49,8a1.77,1.77,0,0,0,2.29.8,1.72,1.72,0,0,0,.81-2.29L50.61,3.3a1.72,1.72,0,0,0-3.1,1.49h0S49,8,49,8Zm11.64.61a1.74,1.74,0,0,0,2.23-1l1.27-3.24a1.7,1.7,0,0,0-1-2.22h0A1.72,1.72,0,0,0,61,3.1h0L59.71,6.35a1.72,1.72,0,0,0,1,2.23Zm7.71,6a1.73,1.73,0,0,0,2.26.89L74,14.06A1.72,1.72,0,0,0,72.6,10.9h0l-3.31,1.43a1.72,1.72,0,0,0-.89,2.26Zm-30,.73,3.45,1.18A1.76,1.76,0,0,0,44,15.44a1.72,1.72,0,0,0-1.07-2.18h0l-3.45-1.17a1.72,1.72,0,0,0-2.19,1.07h0a1.73,1.73,0,0,0,1.07,2.18ZM56,11a10.57,10.57,0,0,0-10.2,8.48,1.72,1.72,0,0,0,3.38.67h0A7.13,7.13,0,0,1,56,14.41a7.54,7.54,0,0,1,7.36,5.23,1.72,1.72,0,0,0,2.15,1.13h0a1.71,1.71,0,0,0,1.13-2.15h0A11,11,0,0,0,56,11ZM36.36,42.84l2.36-2.51-10.17-11c-1.45-1.56-3.86-1-5.19.36L1.56,52.86a1.71,1.71,0,0,0,.06,2.43,1.73,1.73,0,0,0,2.43-.06h0s22.07-23.37,22.08-23.4ZM110.63,53,88.7,29.35a1.14,1.14,0,0,1-.11-.11,3.55,3.55,0,0,0-5,.39l-.07.08-10,10.64,2.34,2.52L86,32.07c.15-.16.27-.22.28-.25l21.81,23.53a1.76,1.76,0,0,0,2.43.09,1.73,1.73,0,0,0,.09-2.43Z"/><path id="Path_372" data-name="Path 372" class="cls-2" d="M88.65,39.74a3.72,3.72,0,0,0-5.22.08L78.08,45.3l2.34,2.52,5.47-5.6a.27.27,0,0,1,.34,0l16.92,17.2a1.12,1.12,0,0,1,.2.41v20c0,.09-.12.2-.31.2H93.89V69.85a7,7,0,0,0-5.85-7,6.88,6.88,0,0,0-7.82,5.78,7,7,0,0,0-.08,1V80h0a6.9,6.9,0,0,1-1,3.44H103a3.7,3.7,0,0,0,3.74-3.65V59.79a4.28,4.28,0,0,0-1.2-2.85ZM90.46,80H83.58V69.77a3.54,3.54,0,0,1,2.73-3.5,3.47,3.47,0,0,1,4.15,3.37ZM32,69.86a7,7,0,0,0-5.85-7,6.88,6.88,0,0,0-7.82,5.79,6.77,6.77,0,0,0-.08,1V80H9.13c-.19,0-.31-.12-.31-.2V59.81a1.2,1.2,0,0,1,.2-.48L25.74,42.22a.27.27,0,0,1,.34,0l5.57,5.65L34,45.34l-5.51-5.6a3.7,3.7,0,0,0-5.21.09L6.56,56.93a4.48,4.48,0,0,0-1.18,2.86v20a3.7,3.7,0,0,0,3.75,3.64H33.05A7.08,7.08,0,0,1,32,80ZM28.58,80H21.71V69.77a3.53,3.53,0,0,1,2.73-3.5,3.42,3.42,0,0,1,4.14,3.37Zm30-40.22a3.71,3.71,0,0,0-5.22.08L36.64,56.92a4.4,4.4,0,0,0-1.18,2.87v20a3.7,3.7,0,0,0,3.74,3.64H73a3.72,3.72,0,0,0,3.75-3.64v-20a4.34,4.34,0,0,0-1.21-2.85Zm1,40.22H52.65V69.77a3.52,3.52,0,0,1,2.72-3.5,3.43,3.43,0,0,1,4.15,3.37Zm13.75-.2c0,.08-.12.2-.31.2H63V69.86a7,7,0,0,0-5.86-7,6.87,6.87,0,0,0-7.81,5.79,6.77,6.77,0,0,0-.08,1V80h-10c-.19,0-.3-.12-.3-.2V59.81a1.2,1.2,0,0,1,.2-.48L55.82,42.22a.26.26,0,0,1,.34,0l16.92,17.2a1,1,0,0,1,.19.41Z"/><path id="Path_373" data-name="Path 373" class="cls-1" d="M80.46,55.43A1.71,1.71,0,0,0,80.55,53h0L58.63,29.36c-1.45-1.56-3.86-1.05-5.19.35L31.63,52.86a1.72,1.72,0,0,0,.07,2.43h0a1.72,1.72,0,0,0,2.43-.06h0s22.07-23.37,22.08-23.4L78,55.34A1.75,1.75,0,0,0,80.46,55.43Z"/></g></svg>