<svg id="Layer_1" data-name="Layer 1" xmlns="http://www.w3.org/2000/svg" viewBox="0 0 70.57 86.68"><defs><style>.cls-1{fill:#8ff2ff;}.cls-2{fill:#fff;}</style></defs><g id="Group_203" data-name="Group 203"><path id="Path_365" data-name="Path 365" class="cls-1" d="M50.08,41.91H9.39a1.36,1.36,0,0,0-1.3.89,1.33,1.33,0,0,0,.83,1.68,1.54,1.54,0,0,0,.42.07h40.8a1.33,1.33,0,0,0,1.32-1.33,1.23,1.23,0,0,0-.07-.42A1.38,1.38,0,0,0,50.08,41.91ZM9.34,74.81A1.33,1.33,0,0,0,8,76.14a1.54,1.54,0,0,0,.07.42,1.37,1.37,0,0,0,1.3.89H50.08A15.82,15.82,0,0,1,46,74.81Z"/><path id="Path_366" data-name="Path 366" class="cls-2" d="M55.07,78.7v2.69a1.31,1.31,0,0,1-1.31,1.32H5.07a1.32,1.32,0,0,1-1.32-1.32V5.07A1.32,1.32,0,0,1,5.07,3.75H35.33V18.23a3.91,3.91,0,0,0,3.87,3.94H55.07V47.24q.66-.06,1.32-.06t1.32.06V20.41a1.35,1.35,0,0,0-.42-1L38,1.47a1.32,1.32,0,0,0-.9-.35h-32a4,4,0,0,0-3.95,4V81.39a4,4,0,0,0,4,4H53.76a4,4,0,0,0,4-4V78.7q-.66.06-1.32.06T55.07,78.7ZM53.53,19.54H39.28A1.27,1.27,0,0,1,38,18.29h0V5.05Z"/><path id="Path_367" data-name="Path 367" class="cls-1" d="M56.39,49.51A13.16,13.16,0,0,0,43.23,62.67h0A13.16,13.16,0,0,0,56.39,75.83h0A13.16,13.16,0,0,0,69.55,62.67h0A13.18,13.18,0,0,0,56.39,49.51Zm0,23.69A10.53,10.53,0,1,1,66.92,62.67,10.53,10.53,0,0,1,56.39,73.2Zm-43.57-51a5.17,5.17,0,0,0-5.13,5.2c0,.1,0,.21,0,.31V34a2.62,2.62,0,0,0,2.63,2.62H24.81A2.63,2.63,0,0,0,27.44,34V27.68a5.16,5.16,0,0,0-4.81-5.49h-.31a4.92,4.92,0,0,1-.1-2.74,5.58,5.58,0,0,0,.61-2.53V14.28a5.14,5.14,0,0,0-5-5.27H17.4a5.13,5.13,0,0,0-5.1,5.16v2.74a5.26,5.26,0,0,0,.7,2.68,5,5,0,0,1-.18,2.59Zm4.59,0h.32a5.07,5.07,0,0,0,1.8-.33,6.61,6.61,0,0,0,.23,1l-2.16,2.8-2.11-2.92s0,0-.05,0a5.71,5.71,0,0,0,.18-.82,5,5,0,0,0,1.79.32Zm7.4,5.51V34H10.34V27.69c0-1.81,1-2.88,2.65-2.88h.76l2.61,3.6a1.49,1.49,0,0,0,1.2.66,1.39,1.39,0,0,0,1.2-.63l2.81-3.64h.58a2.56,2.56,0,0,1,2.68,2.42,3.54,3.54,0,0,1,0,.46Zm-9.87-13.4a2.53,2.53,0,0,1,2.42-2.63h.37a2.53,2.53,0,0,1,2.48,2.58h0v2.68a2.53,2.53,0,0,1-2.43,2.63h-.36A2.53,2.53,0,0,1,14.94,17h0V14.28Zm-5.59,54A1.32,1.32,0,0,0,8,69.56,1.2,1.2,0,0,0,8.1,70a1.35,1.35,0,0,0,1.3.89H42.72a16,16,0,0,1-1.21-2.63Zm0-6.58A1.32,1.32,0,0,0,8,63a1.23,1.23,0,0,0,.07.42,1.35,1.35,0,0,0,1.3.89H40.66c0-.44-.06-.87-.06-1.32s0-.88.06-1.31Zm.05-3.95H41.51a15,15,0,0,1,1.22-2.63H9.35A1.32,1.32,0,0,0,8,56.4a1.2,1.2,0,0,0,.07.42,1.36,1.36,0,0,0,1.3.89ZM50.09,48.5H9.4a1.31,1.31,0,0,0-.47,2.56,1.48,1.48,0,0,0,.42.07H46a15.82,15.82,0,0,1,4.12-2.64Z"/><path id="Path_368" data-name="Path 368" class="cls-2" d="M60.07,58.78l-5,5.06-2.38-2a1.33,1.33,0,0,0-1.86.14h0a1.33,1.33,0,0,0,.15,1.86h0l3.3,2.81A1.32,1.32,0,0,0,56,66.56l5.9-5.92a1.31,1.31,0,0,0,0-1.86h0a1.3,1.3,0,0,0-1.86,0h0Z"/></g></svg>