<svg id="Layer_1" data-name="Layer 1" xmlns="http://www.w3.org/2000/svg" viewBox="0 0 94.31 80.54"><defs><style>.cls-1{fill:#fff;}.cls-2{fill:#8ff2ff;}</style></defs><g id="Group_204" data-name="Group 204"><path id="Path_369" data-name="Path 369" class="cls-1" d="M31.3,17.41a7.92,7.92,0,0,0,0-15.83h0a7.92,7.92,0,1,0,0,15.83Zm0-13a5,5,0,0,1,5,5h0a5,5,0,0,1-5,5h0a5,5,0,1,1,0-10.08ZM63,17.41A7.92,7.92,0,0,0,63,1.58h0a7.92,7.92,0,1,0,0,15.83Zm0-13a5,5,0,0,1,5,5h0a5,5,0,0,1-5,5h0a5,5,0,0,1-5-5h0A5,5,0,0,1,63,4.45ZM25.41,18.85h.52a11,11,0,0,1-3-2.5,8.61,8.61,0,0,0-5.37,4.88,10.53,10.53,0,0,1,2.73.95,5.63,5.63,0,0,1,5.09-3.33ZM15.46,39.73a7.92,7.92,0,1,0-7.92-7.92,7.93,7.93,0,0,0,7.92,7.92Zm0-13a5,5,0,0,1,5,5h0a5,5,0,1,1-10.08,0h0a5,5,0,0,1,5-5Zm23.75,5a7.92,7.92,0,1,0,7.92-7.92,7.92,7.92,0,0,0-7.92,7.92Zm7.92-5a5,5,0,0,1,5,5h0a5,5,0,0,1-5,5h0a5,5,0,1,1,0-10.08Zm23.75,5a7.92,7.92,0,1,0,7.92-7.92,7.92,7.92,0,0,0-7.92,7.92Zm7.92-5a5,5,0,0,1,5,5h0a5,5,0,0,1-5,5h0a5,5,0,0,1-5-5h0a5,5,0,0,1,5-5ZM63,59.16a7.92,7.92,0,1,0-7.92-7.92A7.91,7.91,0,0,0,63,59.16Zm0-13a5,5,0,0,1,5,5h0a5,5,0,0,1-5,5h0a5,5,0,0,1-5-5h0a5,5,0,0,1,5-5Zm-31.67,13a7.92,7.92,0,1,0-7.92-7.92,7.91,7.91,0,0,0,7.92,7.92Zm0-13a5,5,0,0,1,5,5h0a5,5,0,0,1-5,5h0a5,5,0,0,1-5-5h0a5,5,0,0,1,5-5ZM57.08,18.85h.52a11,11,0,0,1-3-2.5,8.61,8.61,0,0,0-5.37,4.88,10.53,10.53,0,0,1,2.73.95,5.63,5.63,0,0,1,5.09-3.33Zm-20.42,0h.52a5.63,5.63,0,0,1,5.09,3.33A10.53,10.53,0,0,1,45,21.23a8.61,8.61,0,0,0-5.37-4.88,11,11,0,0,1-3,2.5Zm31.67,0h.52a5.63,5.63,0,0,1,5.09,3.33,10.53,10.53,0,0,1,2.73-.95,8.61,8.61,0,0,0-5.37-4.88,11,11,0,0,1-3,2.5ZM34.64,37.57a11.09,11.09,0,0,1,2.62-1.42,10.55,10.55,0,0,1-.52-1.46H25.86a10.59,10.59,0,0,1-.53,1.46A11.09,11.09,0,0,1,28,37.57Zm31.67,0a11.46,11.46,0,0,1,2.62-1.42,9.39,9.39,0,0,1-.52-1.46H57.53A10.59,10.59,0,0,1,57,36.15a11.46,11.46,0,0,1,2.62,1.42Z"/><path id="Path_370" data-name="Path 370" class="cls-2" d="M71.24,58.09a10.88,10.88,0,0,1-3,2.5h.53a5.74,5.74,0,0,1,5.63,5.8V75A1.44,1.44,0,0,1,73,76.42H52.83A1.43,1.43,0,0,1,51.39,75V66.39A5.73,5.73,0,0,1,57,60.59h.52a11,11,0,0,1-3-2.5,8.67,8.67,0,0,0-6.06,8.31V75a4.32,4.32,0,0,0,4.32,4.32H73A4.32,4.32,0,0,0,77.3,75V66.4A8.67,8.67,0,0,0,71.24,58.09ZM52.49,41.16H53a5.45,5.45,0,0,1,3.61,1.36,10.57,10.57,0,0,1,2.65-1.42,8.6,8.6,0,0,0-3.81-2.45,10.74,10.74,0,0,1-3,2.51Zm20.95,0a10.74,10.74,0,0,1-3-2.51,8.6,8.6,0,0,0-3.81,2.45,10.57,10.57,0,0,1,2.65,1.42,5.51,5.51,0,0,1,3.61-1.36ZM39.57,58.09a11,11,0,0,1-3,2.5h.52a5.74,5.74,0,0,1,5.63,5.8V75a1.44,1.44,0,0,1-1.44,1.44H21.16A1.43,1.43,0,0,1,19.72,75V66.39a5.72,5.72,0,0,1,5.62-5.8h.53a11,11,0,0,1-3-2.5,8.66,8.66,0,0,0-6.05,8.31V75a4.32,4.32,0,0,0,4.32,4.32H41.31A4.33,4.33,0,0,0,45.63,75V66.4A8.67,8.67,0,0,0,39.57,58.09ZM20.83,41.16h.53A5.45,5.45,0,0,1,25,42.52a10.81,10.81,0,0,1,2.66-1.42,8.65,8.65,0,0,0-3.81-2.45A11,11,0,0,1,20.83,41.16Zm20.94,0a10.84,10.84,0,0,1-3-2.51A8.54,8.54,0,0,0,35,41.1a10.75,10.75,0,0,1,2.65,1.42,5.51,5.51,0,0,1,3.61-1.36Zm45.31-2.51a10.74,10.74,0,0,1-3,2.51h.53A5.73,5.73,0,0,1,90.26,47v8.59A1.44,1.44,0,0,1,88.82,57H75.39a11.4,11.4,0,0,1,2.79,2.88H88.81a4.32,4.32,0,0,0,4.32-4.32V47a8.68,8.68,0,0,0-6-8.31ZM50.48,57H43.79a11.7,11.7,0,0,1,2.79,2.87h1.11A11.53,11.53,0,0,1,50.48,57ZM18.75,57H5.32a1.45,1.45,0,0,1-1.44-1.44V47a5.72,5.72,0,0,1,5.63-5.8H10a10.84,10.84,0,0,1-3-2.51A8.68,8.68,0,0,0,1,47v8.59a4.33,4.33,0,0,0,4.32,4.32H16A11.57,11.57,0,0,1,18.74,57Z"/></g></svg>