<svg xmlns="http://www.w3.org/2000/svg" width="111.867" height="113.818" viewBox="0 0 111.867 113.818">
  <g id="Group_216" data-name="Group 216" transform="translate(-426.104 2553.336)">
    <path id="Path_391" data-name="Path 391" d="M480.077-2466.455a16.29,16.29,0,0,1,23.039,0" transform="translate(-9.559 -14.542)" fill="none" stroke="#97f1ff" stroke-linecap="round" stroke-miterlimit="10" stroke-width="4"/>
    <path id="Path_392" data-name="Path 392" d="M480.077-2482.856a16.291,16.291,0,0,1,23.039,0" transform="translate(-9.559 -11.637)" fill="none" stroke="#97f1ff" stroke-linecap="round" stroke-miterlimit="10" stroke-width="4"/>
    <g id="Group_214" data-name="Group 214" transform="translate(426.104 -2553.336)">
      <path id="Path_393" data-name="Path 393" d="M499.167-2520.879a7.072,7.072,0,0,0-7.065-7.063,7.072,7.072,0,0,0-7.064,7.063,7.027,7.027,0,0,0,.259,1.871h13.609A7.027,7.027,0,0,0,499.167-2520.879Z" transform="translate(-436.542 2548.838)" fill="none"/>
      <path id="Path_394" data-name="Path 394" d="M460.632-2539.855a2.479,2.479,0,0,1,1.865-1.492h48.475c.746,0,1.865.746,1.865,1.492l1.118,5.966h6.5v-9.322a5.61,5.61,0,0,0-5.593-5.594h-56.04a5.61,5.61,0,0,0-5.593,5.594v9.322h6.286Z" transform="translate(-430.908 2552.533)" fill="none"/>
      <path id="Path_395" data-name="Path 395" d="M488.169-2532.521a10.368,10.368,0,0,1,10.356,10.355,10.31,10.31,0,0,1-.179,1.871h15.942l-2.983-14.915H465.814l-2.984,14.915h15.162a10.31,10.31,0,0,1-.178-1.871A10.367,10.367,0,0,1,488.169-2532.521Z" transform="translate(-432.608 2550.125)" fill="none"/>
      <path id="Path_396" data-name="Path 396" d="M499.049-2511.232h34.066l-4.1-14.915h-6.072l1.864,8.949a2.245,2.245,0,0,1-.373,1.492,2.825,2.825,0,0,1-1.491.746h-19.66A10.406,10.406,0,0,1,499.049-2511.232Z" transform="translate(-439.023 2548.521)" fill="none"/>
      <path id="Path_397" data-name="Path 397" d="M492.7-2511.089a7.025,7.025,0,0,0,4.289-1.464h-8.578A7.025,7.025,0,0,0,492.7-2511.089Z" transform="translate(-437.139 2546.113)" fill="none"/>
      <path id="Path_398" data-name="Path 398" d="M476.847-2514.961H457.968a2.823,2.823,0,0,1-1.492-.746,2.244,2.244,0,0,1-.373-1.492l1.865-8.949h-5.861l-4.1,14.915h33.073A10.406,10.406,0,0,1,476.847-2514.961Z" transform="translate(-429.983 2548.521)" fill="none"/>
      <path id="Path_399" data-name="Path 399" d="M522.253-2503.49H444l-12.305,44.747H534.61Z" transform="translate(-427.094 2544.508)" fill="none"/>
      <path id="Path_400" data-name="Path 400" d="M430.636-2435.26a5.609,5.609,0,0,0,5.593,5.593h93.222a5.61,5.61,0,0,0,5.593-5.593v-9.322H430.636Z" transform="translate(-426.907 2534.075)" fill="none"/>
      <path id="Path_401" data-name="Path 401" d="M519.326-2533.2v-10.814a9.321,9.321,0,0,0-9.322-9.322H454.071a9.322,9.322,0,0,0-9.323,9.322v10.814L426.1-2466.08v11.932a9.157,9.157,0,0,0,9.323,8.95h1.864v3.816a1.762,1.762,0,0,0,1.865,1.865,1.762,1.762,0,0,0,1.865-1.865v-3.816h82.035v3.816a1.762,1.762,0,0,0,1.865,1.865,1.761,1.761,0,0,0,1.864-1.865v-3.816h1.865a9.322,9.322,0,0,0,9.323-9.323v-11.559Zm-70.9-10.814a5.61,5.61,0,0,1,5.593-5.594h56.04a5.61,5.61,0,0,1,5.593,5.594v9.322h-6.5l-1.118-5.966c0-.745-1.118-1.492-1.865-1.492H457.693a2.479,2.479,0,0,0-1.865,1.492l-1.118,5.966h-6.286Zm-.2,13.051h5.861l-1.865,8.949a2.244,2.244,0,0,0,.373,1.491,2.824,2.824,0,0,0,1.492.746h18.879a10.286,10.286,0,0,1-1.48-3.729H456.326l2.984-14.915H504.8l2.983,14.915H491.843a10.285,10.285,0,0,1-1.48,3.729h19.66a2.825,2.825,0,0,0,1.491-.746,2.244,2.244,0,0,0,.373-1.491l-1.864-8.949h6.072l4.1,14.915H486.13a10.27,10.27,0,0,1-4.465,1.027,10.27,10.27,0,0,1-4.465-1.027H444.127Zm-5.22,18.644h78.254l12.357,44.746H430.7Zm91.233,57.8a5.609,5.609,0,0,1-5.593,5.593H435.427a5.609,5.609,0,0,1-5.593-5.593v-9.322H534.241Z" transform="translate(-426.104 2553.336)" fill="#97f1ff"/>
      <path id="Path_402" data-name="Path 402" d="M484.331-2521.587a7.072,7.072,0,0,1,7.064-7.064,7.073,7.073,0,0,1,7.065,7.064,7.027,7.027,0,0,1-.26,1.871h3.373a10.311,10.311,0,0,0,.179-1.871,10.368,10.368,0,0,0-10.356-10.355,10.367,10.367,0,0,0-10.355,10.355,10.311,10.311,0,0,0,.178,1.871h3.373A7.027,7.027,0,0,1,484.331-2521.587Z" transform="translate(-435.833 2549.547)" fill="#fff"/>
      <path id="Path_403" data-name="Path 403" d="M487.286-2508.824h8.93a10.407,10.407,0,0,0,4.232-3.729H496.04a7.025,7.025,0,0,1-4.289,1.464,7.025,7.025,0,0,1-4.289-1.464h-4.408A10.407,10.407,0,0,0,487.286-2508.824Z" transform="translate(-436.19 2546.113)" fill="#fff"/>
      <path id="Path_404" data-name="Path 404" d="M498.835-2513.355h4.408a10.285,10.285,0,0,0,1.48-3.729h-3.373A7.073,7.073,0,0,1,498.835-2513.355Z" transform="translate(-438.985 2546.916)" fill="#fff"/>
      <path id="Path_405" data-name="Path 405" d="M484.628-2517.085h-3.373a10.285,10.285,0,0,0,1.48,3.729h4.408A7.073,7.073,0,0,1,484.628-2517.085Z" transform="translate(-435.872 2546.916)" fill="#fff"/>
      <path id="Path_406" data-name="Path 406" d="M492.662-2506.995a10.273,10.273,0,0,0,4.465-1.027H488.2A10.272,10.272,0,0,0,492.662-2506.995Z" transform="translate(-437.101 2545.311)" fill="#fff"/>
    </g>
    <g id="Group_215" data-name="Group 215" transform="translate(452.206 -2542.269)">
      <path id="Path_407" data-name="Path 407" d="M492.1-2527.943a7.072,7.072,0,0,0-7.064,7.063,7.032,7.032,0,0,0,.229,1.752h13.67a7.032,7.032,0,0,0,.23-1.752A7.072,7.072,0,0,0,492.1-2527.943Z" transform="translate(-462.644 2537.771)" fill="none"/>
      <path id="Path_408" data-name="Path 408" d="M488.166-2532.548a10.368,10.368,0,0,1,10.356,10.356,10.337,10.337,0,0,1-.16,1.752h15.906l-2.983-14.916H465.792l-2.983,14.916H477.97a10.343,10.343,0,0,1-.16-1.752A10.367,10.367,0,0,1,488.166-2532.548Z" transform="translate(-458.707 2539.084)" fill="none"/>
      <path id="Path_409" data-name="Path 409" d="M492.666-2511.115a7.026,7.026,0,0,0,4.449-1.584h-8.9A7.026,7.026,0,0,0,492.666-2511.115Z" transform="translate(-463.207 2535.072)" fill="none"/>
      <path id="Path_410" data-name="Path 410" d="M515.622-2528.7l-.87-3.729-1.119-5.967c0-.745-1.118-1.491-1.864-1.491H463.293a2.478,2.478,0,0,0-1.864,1.491l-1.119,5.967-.621,3.729-1.865,8.95a2.241,2.241,0,0,0,.373,1.491,2.83,2.83,0,0,0,1.492.746h18.824a10.27,10.27,0,0,1-1.425-3.729H461.926l2.983-14.916H510.4l2.983,14.916H497.478a10.269,10.269,0,0,1-1.425,3.729h19.568a2.833,2.833,0,0,0,1.492-.746,2.242,2.242,0,0,0,.373-1.491Z" transform="translate(-457.824 2539.887)" fill="#fff"/>
      <path id="Path_411" data-name="Path 411" d="M484.331-2521.587a7.072,7.072,0,0,1,7.064-7.064,7.073,7.073,0,0,1,7.065,7.064,7.033,7.033,0,0,1-.23,1.752h3.361a10.335,10.335,0,0,0,.16-1.752,10.368,10.368,0,0,0-10.356-10.355,10.367,10.367,0,0,0-10.355,10.355,10.341,10.341,0,0,0,.16,1.752h3.361A7.036,7.036,0,0,1,484.331-2521.587Z" transform="translate(-461.935 2538.48)" fill="#fff"/>
      <path id="Path_412" data-name="Path 412" d="M491.735-2511.115a7.025,7.025,0,0,1-4.448-1.584h-4.322a10.348,10.348,0,0,0,8.77,4.875,10.348,10.348,0,0,0,8.77-4.875h-4.322A7.026,7.026,0,0,1,491.735-2511.115Z" transform="translate(-462.277 2535.072)" fill="#fff"/>
      <path id="Path_413" data-name="Path 413" d="M501.415-2517.23a7.066,7.066,0,0,1-2.386,3.728h4.322a10.265,10.265,0,0,0,1.425-3.728Z" transform="translate(-465.122 2535.874)" fill="#fff"/>
      <path id="Path_414" data-name="Path 414" d="M484.594-2517.23h-3.361a10.266,10.266,0,0,0,1.425,3.728h4.322A7.067,7.067,0,0,1,484.594-2517.23Z" transform="translate(-461.97 2535.874)" fill="#fff"/>
    </g>
  </g>
</svg>
