<svg xmlns="http://www.w3.org/2000/svg" width="120.512" height="120.512" viewBox="0 0 120.512 120.512">
  <g id="Group_209" data-name="Group 209" transform="translate(-43)">
    <g id="Group_218" data-name="Group 218" transform="translate(43)">
      <g id="Group_207" data-name="Group 207">
        <path id="Path_376" data-name="Path 376" d="M1187.176-2363.22v5.491a1.929,1.929,0,0,0,1.269,1.866,1.889,1.889,0,0,0,2.5-1.786v-5.649a1.89,1.89,0,0,0-2.5-1.787A1.928,1.928,0,0,0,1187.176-2363.22Zm84.213-33.387-55.16-58.306c-.04-.042-.081-.082-.124-.119-2.244-1.974-6.167-2.261-9.325,1.011l-54.861,57.077a1.883,1.883,0,0,0,.049,2.662,1.884,1.884,0,0,0,2.662-.049l0,0,54.859-57.074c1.669-1.73,3.22-1.542,4.07-.844l55.091,58.233a1.941,1.941,0,0,0,2.662.074A1.884,1.884,0,0,0,1271.389-2396.607Zm-32.1-38.663a1.889,1.889,0,0,0,2.5-1.786v-8.15h5.649v18.75a1.928,1.928,0,0,0,1.269,1.866,1.889,1.889,0,0,0,2.5-1.786v-18.83a3.769,3.769,0,0,0-3.766-3.766h-5.649a3.77,3.77,0,0,0-3.766,3.766v8.071A1.928,1.928,0,0,0,1239.286-2435.27Z" transform="translate(-1151.391 2456.503)" fill="#97f1ff"/>
        <path id="Path_377" data-name="Path 377" d="M1221.713-2399.725a1.882,1.882,0,0,0,1.883,1.883h22.6a1.894,1.894,0,0,0,1.883-1.915,13.181,13.181,0,0,0-13.181-13.149,13.181,13.181,0,0,0-13.181,13.181Zm3.955-1.882a9.408,9.408,0,0,1,2.872-5.049l3.028,5.049Zm15.58-5.049a9.407,9.407,0,0,1,2.872,5.049h-5.9Zm-6.354,3.263-3.13-5.217a9.35,9.35,0,0,1,6.26,0Z" transform="translate(-1174.637 2442.092)" fill="#fff"/>
        <path id="Path_378" data-name="Path 378" d="M1255.627-2402.366a12.615,12.615,0,0,1-.147,5.289l5.738,5.987a4.947,4.947,0,0,1,1.212,2.863v51.024a3.1,3.1,0,0,1-3.161,3.032h-3.63a5.176,5.176,0,0,0,.2-1.413v-20.378a3.762,3.762,0,0,0,2.824-3.632v-20.712a11.312,11.312,0,0,0-6.8-10.358,13.21,13.21,0,0,1-4.363,2.832,7.538,7.538,0,0,1,7.394,7.526l0,20.715h-3.769v-7.453a1.928,1.928,0,0,0-1.269-1.865,1.889,1.889,0,0,0-2.5,1.786v7.532h-9.415v-7.453a1.928,1.928,0,0,0-1.269-1.865,1.889,1.889,0,0,0-2.5,1.786v7.532h-3.766v-20.715a7.538,7.538,0,0,1,7.395-7.526,13.2,13.2,0,0,1-4.363-2.832,11.312,11.312,0,0,0-6.8,10.358v20.712a3.762,3.762,0,0,0,2.824,3.632v20.143a5.385,5.385,0,0,0,.258,1.648h-14.381v-29.736A15.319,15.319,0,0,0,1202-2379.271a15.067,15.067,0,0,0-16.777,14.969v30.131h-10.02a3.1,3.1,0,0,1-3.161-3.032v-51.024a5.315,5.315,0,0,1,1.194-2.962l41.623-43.734a3.029,3.029,0,0,1,4.246-.107l21.086,22a12.862,12.862,0,0,1,5.286.073l-23.69-24.72a6.822,6.822,0,0,0-9.646.146l-.01.01-41.623,43.732a9.022,9.022,0,0,0-2.232,5.559v51.024a6.871,6.871,0,0,0,6.927,6.8h84.062a6.871,6.871,0,0,0,6.927-6.8v-51.024a8.65,8.65,0,0,0-2.3-5.507Zm-44.039,68.2h-22.6v-29.814a11.5,11.5,0,0,1,9.444-11.468,11.306,11.306,0,0,1,13.152,11.151Zm25.42-1.647a1.65,1.65,0,0,1-1.647,1.647h-.471a1.65,1.65,0,0,1-1.648-1.647v-20.007h3.766Zm3.508,1.647a5.425,5.425,0,0,0,.258-1.647v-20.007h3.766v20.242a5.158,5.158,0,0,0,.2,1.413Zm11.556-1.413a1.414,1.414,0,0,1-1.412,1.413h-.942a1.414,1.414,0,0,1-1.412-1.413v-20.242h3.766Z" transform="translate(-1156.974 2450.916)" fill="#fff"/>
        <path id="Path_379" data-name="Path 379" d="M1265.311-2385.22a9.416,9.416,0,0,0,9.416,9.415,9.415,9.415,0,0,0,9.414-9.417,9.415,9.415,0,0,0-9.415-9.414A9.426,9.426,0,0,0,1265.311-2385.22Zm15.064,0a5.649,5.649,0,0,1-5.649,5.649,5.649,5.649,0,0,1-5.649-5.649,5.649,5.649,0,0,1,5.649-5.649A5.656,5.656,0,0,1,1280.375-2385.22Z" transform="translate(-1189.049 2436.052)" fill="#fff"/>
      </g>
      <g id="Group_208" data-name="Group 208" transform="translate(28.249 71.55)">
        <path id="Path_380" data-name="Path 380" d="M1206.12-2319.991a1.928,1.928,0,0,0-1.269,1.866v5.49a1.929,1.929,0,0,0,1.269,1.866,1.889,1.889,0,0,0,2.5-1.786v-5.649A1.89,1.89,0,0,0,1206.12-2319.991Z" transform="translate(-1197.313 2339.859)" fill="#97f1ff"/>
        <path id="Path_381" data-name="Path 381" d="M1210.373-2349.528a15.068,15.068,0,0,0-16.777,14.969v30.131h-.006v3.766h30.134v-33.5A15.32,15.32,0,0,0,1210.373-2349.528Zm9.585,30.792v14.308h-22.6v-29.813a11.5,11.5,0,0,1,9.444-11.469,11.306,11.306,0,0,1,13.152,11.151Z" transform="translate(-1193.59 2349.623)" fill="#97f1ff"/>
      </g>
    </g>
  </g>
</svg>
