<svg id="Group_210" data-name="Group 210" xmlns="http://www.w3.org/2000/svg" width="100.845" height="129.089" viewBox="0 0 100.845 129.089">
  <path id="Path_382" data-name="Path 382" d="M819.526-2498.375a2.036,2.036,0,0,0-1.784,3.007,1.95,1.95,0,0,0,1.775,1.026h3.961a2.066,2.066,0,0,0,2-1.357,2.023,2.023,0,0,0-1.908-2.676h-4.042Zm-25.213-68.574h29.233a2.037,2.037,0,0,0,1.784-3.008,1.948,1.948,0,0,0-1.775-1.026H794.313a2.037,2.037,0,0,0-1.784,3.008,1.951,1.951,0,0,0,1.775,1.026Zm0-8.068h29.233a2.037,2.037,0,0,0,1.784-3.008,1.951,1.951,0,0,0-1.775-1.026H794.313a2.037,2.037,0,0,0-1.784,3.008,1.948,1.948,0,0,0,1.775,1.026Zm0,16.135h29.233a2.036,2.036,0,0,0,1.784-3.007,1.949,1.949,0,0,0-1.775-1.027H794.313a2.037,2.037,0,0,0-1.784,3.008,1.95,1.95,0,0,0,1.775,1.025Zm54.46,4.034H794.312a2.036,2.036,0,0,0-1.784,3.007,1.948,1.948,0,0,0,1.775,1.027h54.471a2.037,2.037,0,0,0,1.784-3.008,1.949,1.949,0,0,0-1.775-1.026Zm0,8.068H794.312a2.036,2.036,0,0,0-1.784,3.008,1.948,1.948,0,0,0,1.775,1.026h54.471a2.036,2.036,0,0,0,1.784-3.007,1.948,1.948,0,0,0-1.775-1.026Zm0,8.067H794.312a2.037,2.037,0,0,0-1.784,3.008,1.95,1.95,0,0,0,1.775,1.026h54.471a2.036,2.036,0,0,0,1.784-3.007,1.949,1.949,0,0,0-1.775-1.027Zm0,12.1a2.037,2.037,0,0,0,1.784-3.008,1.948,1.948,0,0,0-1.775-1.026H794.312a2.036,2.036,0,0,0-1.784,3.008,1.949,1.949,0,0,0,1.775,1.026h54.471Z" transform="translate(-780.197 2591.16)" fill="#97f1ff"/>
  <path id="Path_383" data-name="Path 383" d="M845.41-2462.291v12.921a2.035,2.035,0,0,1-2.016,2.052h-12.1v-12.1a6.057,6.057,0,0,0-6.05-6.049h-6.051a6.057,6.057,0,0,0-6.051,6.049v12.1h-12.1a2.036,2.036,0,0,1-2.017-2.052v-25.163a2.157,2.157,0,0,1,.379-.969l22.294-24.061a.558.558,0,0,1,.407-.193h.008a.52.52,0,0,1,.363.137l16.975,18.193a8.019,8.019,0,0,1,.292-3.608,7.858,7.858,0,0,1,.594-1.355l-14.951-16.024a4.423,4.423,0,0,0-3.347-1.376,4.561,4.561,0,0,0-3.3,1.485l-22.292,24.06a5.927,5.927,0,0,0-1.453,3.711v25.163a6.075,6.075,0,0,0,6.05,6.087h42.355a6.075,6.075,0,0,0,6.05-6.086v-8.01a7.967,7.967,0,0,1-1.017-.636A8.521,8.521,0,0,1,845.41-2462.291Zm-18.151,14.973H817.174v-12.1a2.019,2.019,0,0,1,2.017-2.016h6.051a2.02,2.02,0,0,1,2.017,2.016Zm32.27-6.659v4.66a2.01,2.01,0,0,1-2.017,2h-4.243a10.074,10.074,0,0,1-1.838,4.034h6.081a6.049,6.049,0,0,0,6.05-6.034v-4.13a7.944,7.944,0,0,1-1.007.076A8.009,8.009,0,0,1,859.529-2453.977Z" transform="translate(-780.87 2572.372)" fill="#fff"/>
  <path id="Path_384" data-name="Path 384" d="M782.224-2470.134a2.01,2.01,0,0,1-2.017-2v-117.013a1.985,1.985,0,0,1,1.966-2h43.414v22.335a5.913,5.913,0,0,0,5.911,5.9h23.333v38.918a7.99,7.99,0,0,1,3.026-.605,7.943,7.943,0,0,1,1.007.075v-39.47a6.042,6.042,0,0,0-1.9-4.392l-26.778-25.153a5.356,5.356,0,0,0-4.149-1.642H782.173a6.023,6.023,0,0,0-6,6.033v117.014a6.05,6.05,0,0,0,6.051,6.034H788.3a10.073,10.073,0,0,1-1.838-4.034Zm47.4-118.4,22.983,21.587H831.5a1.874,1.874,0,0,1-1.877-1.867Z" transform="translate(-776.173 2595.188)" fill="#fff"/>
  <path id="Path_385" data-name="Path 385" d="M896.267-2476.165a6.072,6.072,0,0,1,.609-1.727c.574-1.268,1.288-2.844.757-4.5-.55-1.713-2.082-2.581-3.314-3.277a5.952,5.952,0,0,1-1.406-.951,6.011,6.011,0,0,1-.478-1.687c-.274-1.387-.615-3.114-2.041-4.165s-3.157-.847-4.548-.684a5.8,5.8,0,0,1-1.737.058,6,6,0,0,1-1.286-1.034c-1.043-.98-2.341-2.2-4.164-2.2s-3.121,1.219-4.164,2.2a6,6,0,0,1-1.287,1.035,5.958,5.958,0,0,1-1.736-.059c-1.391-.163-3.122-.367-4.547.684s-1.768,2.776-2.041,4.164a6.044,6.044,0,0,1-.478,1.688,5.983,5.983,0,0,1-1.406.95c-1.232.7-2.765,1.564-3.314,3.279-.531,1.654.182,3.231.756,4.5a6.07,6.07,0,0,1,.609,1.727,6.067,6.067,0,0,1-.609,1.727c-.574,1.267-1.287,2.845-.756,4.5.549,1.715,2.082,2.582,3.314,3.279a5.953,5.953,0,0,1,1.406.952,6.032,6.032,0,0,1,.478,1.687c.273,1.387.615,3.114,2.04,4.165s3.157.847,4.548.684a5.794,5.794,0,0,1,1.738-.058,5.994,5.994,0,0,1,1.285,1.034c1.043.979,2.342,2.2,4.164,2.2s3.121-1.219,4.164-2.2a6.043,6.043,0,0,1,1.285-1.035,5.936,5.936,0,0,1,1.737.059c1.39.165,3.122.368,4.549-.684s1.766-2.777,2.039-4.165a6.033,6.033,0,0,1,.478-1.688,5.963,5.963,0,0,1,1.407-.951c1.232-.7,2.764-1.564,3.314-3.278.53-1.656-.183-3.232-.757-4.5A6.069,6.069,0,0,1,896.267-2476.165Zm-3.933,5.993a7.924,7.924,0,0,0-2.7,2.108,8.107,8.107,0,0,0-1.159,3.263,7.093,7.093,0,0,1-.449,1.681,5.669,5.669,0,0,1-1.712-.058,7.973,7.973,0,0,0-3.468.115,7.829,7.829,0,0,0-2.786,1.926,5.907,5.907,0,0,1-1.4,1.1,5.853,5.853,0,0,1-1.4-1.1,7.8,7.8,0,0,0-2.787-1.926,5.474,5.474,0,0,0-1.723-.25,14.885,14.885,0,0,0-1.745.134,6.981,6.981,0,0,1-1.668.088,5.829,5.829,0,0,1-.494-1.712,8.1,8.1,0,0,0-1.159-3.26,7.933,7.933,0,0,0-2.7-2.108,6.383,6.383,0,0,1-1.452-.97,5.946,5.946,0,0,1,.583-1.634,8.289,8.289,0,0,0,.968-3.39,8.291,8.291,0,0,0-.968-3.39,6.862,6.862,0,0,1-.594-1.593,5.519,5.519,0,0,1,1.463-1.01,7.943,7.943,0,0,0,2.7-2.107,8.108,8.108,0,0,0,1.159-3.262,7.131,7.131,0,0,1,.45-1.681,5.733,5.733,0,0,1,1.712.057,8.007,8.007,0,0,0,3.466-.115,7.815,7.815,0,0,0,2.788-1.926,6.064,6.064,0,0,1,1.39-1.107,5.658,5.658,0,0,1,1.414,1.107,7.815,7.815,0,0,0,2.787,1.925,7.955,7.955,0,0,0,3.467.116,7.058,7.058,0,0,1,1.668-.088,5.787,5.787,0,0,1,.494,1.713,8.12,8.12,0,0,0,1.159,3.26,7.918,7.918,0,0,0,2.7,2.109,6.4,6.4,0,0,1,1.451.968,5.892,5.892,0,0,1-.583,1.634,8.291,8.291,0,0,0-.968,3.39,8.289,8.289,0,0,0,.968,3.39,6.9,6.9,0,0,1,.6,1.593A5.518,5.518,0,0,1,892.333-2470.172Z" transform="translate(-796.974 2570.51)" fill="#97f1ff"/>
  <path id="Path_386" data-name="Path 386" d="M886.642-2476.262l-5.8,5.76-2.569-2.164a2.016,2.016,0,0,0-2.842.242,2.016,2.016,0,0,0,.242,2.841l3.981,3.353a2.017,2.017,0,0,0,2.72-.11l7.112-7.058a2.017,2.017,0,0,0,0-2.853A2.017,2.017,0,0,0,886.642-2476.262Z" transform="translate(-800.833 2565.645)" fill="#97f1ff"/>
</svg>
